<svg id="Capa_1" enable-background="new 0 0 512.431 512.431" height="512" viewBox="0 0 512.431 512.431" width="512" xmlns="http://www.w3.org/2000/svg"><path d="m504.366 231.544c-2.849-7.577-6.558-15.01-11.082-22.277 4.578-75.868-13.02-129.188-52.349-158.475-29.218-21.755-64.75-32.704-97.484-30.059-15.191 1.23-28.714 5.636-40.193 13.095-3.473 2.257-4.459 6.902-2.202 10.376 2.258 3.473 6.9 4.46 10.376 2.202 9.368-6.088 20.548-9.694 33.23-10.722 28.72-2.329 61.366 7.817 87.314 27.139 31.884 23.742 47.653 66.463 47.007 127.133-5.215-6.024-11.04-11.905-17.465-17.625-18.063-16.079-37.646-27.913-50.893-35.009-5.227-2.8-8.474-8.191-8.474-14.071v-5.722c0-11.716-9.531-21.247-21.246-21.247-11.716 0-21.247 9.531-21.247 21.247v5.367c0 5.9-3.209 11.271-8.374 14.019-13.309 7.079-32.992 18.896-51.188 34.998-2.301 2.037-4.513 4.097-6.661 6.173-.544-5.083-1.186-10.073-1.933-14.922-.862-5.598-1.906-11.349-2.916-16.911-4.798-26.428-9.759-53.755 2.143-76.801 1.9-3.681.458-8.205-3.223-10.105-3.68-1.9-8.205-.459-10.105 3.223-14.244 27.583-8.819 57.465-3.573 86.363 1.037 5.717 2.018 11.117 2.851 16.517 1.349 8.754 2.339 17.989 2.986 27.468-10.193 12.339-17.858 25.26-22.883 38.627-.138.284-.33.692-.565 1.217-.235-.525-.428-.933-.565-1.217-5.025-13.367-12.69-26.287-22.883-38.626.647-9.478 1.637-18.714 2.986-27.468.833-5.4 1.813-10.801 2.852-16.519 5.688-31.334 12.135-66.848-10.192-96.962-4.913-6.616-10.74-12.286-17.318-16.851-11.88-8.244-26.049-13.084-42.113-14.385-32.734-2.646-68.267 8.304-97.484 30.059-39.343 29.293-56.952 82.617-52.36 158.487-4.521 7.264-8.228 14.692-11.074 22.265-1.469 3.03-9.211 20.208-7.921 42.957 1.94 34.193 22.654 58.14 43.487 73.745 5.582 19.852 11.771 37.956 18.902 55.226 7.408 17.94 15.701 36.81 28.367 52.989 15.806 20.19 44.408 35.624 73.438 35.624 9.963 0 19.979-1.819 29.541-5.887 32.551-13.85 47.497-47.689 50.63-74.74.477-4.115-2.473-7.837-6.587-8.313-4.126-.479-7.838 2.473-8.313 6.587-4.038 34.87-24.139 55.234-41.602 62.664-30.394 12.925-67.937-3.005-85.297-25.181-11.495-14.685-19.302-32.49-26.313-49.468-5.072-12.282-9.651-25.022-13.877-38.551 1.456.307 2.934.462 4.41.462 6.219 0 12.385-2.688 16.591-7.744 7.427-8.928 6.157-22.469-2.828-30.185-5.74-4.93-13.659-11.76-18.789-16.308-13.752-12.19-18.515-23.166-16.987-39.147 1.05-10.976 5.516-22.665 12.92-33.811.279-.421.569-.843.868-1.267 2.387-3.385 1.577-8.064-1.809-10.451-3.387-2.387-8.064-1.577-10.451 1.809-.383.543-.755 1.084-1.107 1.616-8.761 13.187-14.069 27.252-15.353 40.676-1.996 20.889 4.574 36.38 21.969 51.8 5.203 4.613 13.186 11.498 18.967 16.463 2.809 2.412 3.288 6.545 1.069 9.212-2.05 2.463-5.608 3.083-8.275 1.446-72.167-44.323-43.343-103.338-42.092-105.807.137-.266.258-.539.362-.819 16.195-43.521 61.398-72.937 86.903-86.597 10.109-5.417 16.39-15.875 16.39-27.294v-5.722c0-3.444 2.802-6.247 6.246-6.247s6.247 2.803 6.247 6.247v5.367c0 11.459 6.258 21.905 16.331 27.263 25.729 13.685 71.327 43.182 87.626 86.982.104.28.226.554.362.819.076.148 7.643 15.098 6.509 35.585-.995 18.002-8.242 34.274-21.605 48.639-.347.305-.666.639-.95 1.001-6.967 7.287-15.519 14.079-25.659 20.345-2.579 1.594-5.854 1.396-7.964-.485-1.409-1.257-2.175-2.986-2.157-4.869.018-1.882.813-3.593 2.24-4.818 5.861-5.032 13.96-12.016 19.257-16.71 17.395-15.42 23.964-30.911 21.967-51.799-1.282-13.424-6.591-27.489-15.352-40.677-14.451-21.752-36.088-40.522-68.094-59.07-11.376-6.591-25.35-6.224-36.475.96-11.151 7.2-27.471 18.315-41.883 30.378-3.177 2.658-3.597 7.389-.938 10.564 2.659 3.177 7.388 3.598 10.564.938 13.824-11.57 29.596-22.308 40.393-29.278 6.366-4.112 14.343-4.335 20.816-.583 29.937 17.349 49.994 34.632 63.121 54.393 7.4 11.139 11.865 22.827 12.914 33.803 1.527 15.981-3.234 26.957-16.985 39.147-5.223 4.629-13.257 11.557-19.078 16.554-4.688 4.025-7.41 9.879-7.468 16.059-.059 6.182 2.557 12.088 7.173 16.205 7.027 6.266 17.65 7.107 25.833 2.05 5.855-3.619 12.012-7.923 18.01-12.95 1.336 10.965 2.631 22.168 3.371 33.099.268 3.96 3.563 6.993 7.475 6.993.171 0 .342-.006.515-.018 4.133-.279 7.256-3.856 6.976-7.989-.885-13.079-2.513-26.321-4.087-39.128-.249-2.024-.493-4.041-.738-6.06 6.464-7.321 12.191-15.713 16.422-25.248 4.231 9.535 9.959 17.926 16.422 25.248-.245 2.018-.489 4.034-.738 6.058-2.743 22.321-5.58 45.402-4.568 67.847.746 16.549 5.566 33.39 13.572 47.42 9.18 16.086 22.198 28.063 37.648 34.637 9.563 4.068 19.575 5.887 29.54 5.887 29.027-.002 57.634-15.435 73.438-35.624 12.666-16.18 20.959-35.049 28.367-52.989 7.132-17.273 13.32-35.377 18.902-55.227 20.833-15.605 41.546-39.553 43.486-73.745 1.294-22.751-6.448-39.928-7.917-42.959zm-343.22-94.629c-5.165-2.747-8.374-8.118-8.374-14.019v-5.367c0-11.716-9.531-21.247-21.247-21.247-11.715 0-21.246 9.531-21.246 21.247v5.722c0 5.88-3.247 11.271-8.473 14.071-13.248 7.096-32.831 18.93-50.894 35.009-6.428 5.723-12.256 11.606-17.472 17.633-.652-60.671 15.125-103.394 47.015-127.14 25.947-19.32 58.597-29.462 87.314-27.139 13.394 1.085 25.094 5.04 34.773 11.758 5.235 3.633 9.887 8.164 13.823 13.465 18.453 24.89 12.874 55.623 7.479 85.344-1.01 5.563-2.054 11.315-2.916 16.913-.748 4.85-1.389 9.839-1.933 14.923-2.148-2.077-4.36-4.137-6.662-6.174-18.195-16.102-37.878-27.919-51.187-34.999zm274.887 260.833c-7.011 16.978-14.817 34.783-26.313 49.468-17.359 22.176-54.908 38.111-85.296 25.181-27.468-11.686-40.94-43.04-42.108-68.93-.879-19.496 1.387-40.056 3.833-60.126 5.997 5.026 12.154 9.331 18.009 12.949 8.185 5.058 18.808 4.216 25.833-2.05 4.617-4.117 7.232-10.023 7.174-16.205-.058-6.18-2.779-12.033-7.468-16.059-5.821-4.997-13.855-11.925-19.077-16.554-13.752-12.19-18.514-23.166-16.986-39.148 1.049-10.975 5.514-22.663 12.914-33.802 13.127-19.761 33.185-37.044 63.121-54.393 6.474-3.753 14.45-3.529 20.816.583 43.222 27.906 58.722 45.691 64.114 53.81 7.399 11.138 11.865 22.827 12.915 33.803 1.527 15.981-3.235 26.957-16.986 39.147-5.131 4.548-13.05 11.378-18.789 16.307-8.986 7.717-10.256 21.258-2.829 30.187 4.206 5.056 10.371 7.743 16.591 7.743 1.476 0 2.954-.156 4.41-.463-4.227 13.529-8.806 26.269-13.878 38.552zm61.277-124.096c-1.57 27.687-17.92 51.277-48.594 70.117-2.67 1.64-6.226 1.017-8.275-1.445-2.219-2.668-1.739-6.801 1.07-9.214 5.78-4.964 13.763-11.849 18.967-16.462 17.394-15.42 23.964-30.911 21.968-51.8-1.283-13.424-6.592-27.489-15.353-40.676-7.377-11.104-25.243-30.199-68.472-58.11-5.83-3.765-12.443-5.657-19.056-5.657-6.003 0-12.006 1.561-17.419 4.697-32.006 18.548-53.643 37.318-68.094 59.07-8.761 13.188-14.069 27.253-15.352 40.676-1.997 20.889 4.572 36.38 21.968 51.8 5.296 4.694 13.395 11.678 19.256 16.71 1.427 1.226 2.223 2.937 2.24 4.818.018 1.883-.748 3.612-2.158 4.869-2.107 1.881-5.381 2.08-7.964.485-37.619-23.248-47.576-50.491-48.37-71.491.055-1.875.049-3.706-.007-5.493.573-16.147 6.138-27.532 6.672-28.586.137-.266.258-.539.362-.819 16.299-43.801 61.896-73.298 87.626-86.982 10.073-5.357 16.331-15.804 16.331-27.263v-5.367c0-3.444 2.803-6.247 6.247-6.247s6.246 2.803 6.246 6.247v5.722c0 11.419 6.28 21.877 16.391 27.294 25.504 13.66 70.707 43.075 86.902 86.597.104.28.226.554.362.819.08.15 7.672 15.151 6.506 35.691z"/></svg>